<?xml version="1.0" encoding="UTF-8" standalone="no"?>
<svg
   enable-background="new 0 0 2560 500.596"
   version="1.1"
   viewBox="0 0 2158.5669 460.20498"
   id="svg4"
   sodipodi:docname="skyline-sp.svg"
   inkscape:version="1.1 (c68e22c387, 2021-05-23)"
   width="2158.5669"
   height="460.20499"
   xmlns:inkscape="http://www.inkscape.org/namespaces/inkscape"
   xmlns:sodipodi="http://sodipodi.sourceforge.net/DTD/sodipodi-0.dtd"
   xmlns:xlink="http://www.w3.org/1999/xlink"
   xmlns="http://www.w3.org/2000/svg"
   xmlns:svg="http://www.w3.org/2000/svg">
  <defs
     id="defs8">
    <inkscape:path-effect
       effect="powerclip"
       id="path-effect3138"
       is_visible="true"
       lpeversion="1"
       inverse="true"
       flatten="false"
       hide_clip="false"
       message="Usar a regra de preenchimento par ou ímpar na caixa de diálogo &lt;b&gt;preenchimento e contorno&lt;/b&gt; se nenhum resultado nivelar após converter o clipe em caminhos." />
    <clipPath
       clipPathUnits="userSpaceOnUse"
       id="clipPath3134">
      <path
         id="lpe_path-effect3138"
         style="fill:none;stroke:#000000;stroke-width:1px;stroke-linecap:butt;stroke-linejoin:miter;stroke-opacity:1"
         class="powerclip"
         d="M -4.0607958,1.7550001 H 2164.3215 V 464.73 H -4.0607958 Z M 964.45117,339.31055 l -7.04883,31.67578 24.02149,54.96484 c 9.79045,1.41667 18.16729,2.69124 22.77927,3.76563 z m -26.72851,0.13281 -63.16993,78.24805 26.49805,1.03711 41.10742,-56.93555 z m 20.49609,2.25781 -5.09375,7.52149 4.44531,1.08593 z m -14.69727,2.4375 1.28125,5.96094 1.94141,-0.28711 z m 7.52344,9.83789 c -0.96672,0.0141 -2.15857,0.31995 -3.71875,1.10547 l 2.28516,12.19922 1.80469,-0.14844 3.26757,-11.67383 c -1.03917,-0.72009 -2.02747,-1.50589 -3.63867,-1.48242 z m -8.11328,9.73242 -39.25781,55.02344 21.37695,1.13477 19.0293,-48.94922 z m 5.89844,13.01368 -12.94531,44.89062 30.68359,3.0293 -14.40625,-47.66016 z m 12.10742,6.73437 14.92969,41.27539 3.88867,0.67188 z m -63.00586,39.01563 -3.12305,3.35351 -4.11914,0.41406 -7.03711,5.14063 37.48438,0.19336 2.11914,-7.66602 z m -37.45508,5.49804 -9.02539,0.43946 0.0176,3.14062 12.55859,-0.0664 c 1.50005,-1.56917 -1.63361,-2.45121 -3.55078,-3.51368 z m 117.07617,0.63868 1.125,2.6289 24.97657,-0.13086 c -8.24969,-0.90455 -13.56037,-2.27707 -26.10157,-2.49804 z m -27.48437,0.41796 c -4.80431,-0.02 -10.03731,0.66818 -15.97852,2.47852 l 32.97071,0.2168 c -5.34803,-1.47505 -10.81523,-2.66962 -16.99219,-2.69532 z" />
    </clipPath>
  </defs>
  <sodipodi:namedview
     id="namedview6"
     pagecolor="#ffffff"
     bordercolor="#666666"
     borderopacity="1.0"
     inkscape:pageshadow="2"
     inkscape:pageopacity="0.0"
     inkscape:pagecheckerboard="0"
     showgrid="false"
     inkscape:zoom="0.22627417"
     inkscape:cx="636.3961"
     inkscape:cy="757.93008"
     inkscape:window-width="1366"
     inkscape:window-height="705"
     inkscape:window-x="-8"
     inkscape:window-y="-8"
     inkscape:window-maximized="1"
     inkscape:current-layer="layer2"
     width="2559px"
     height="460.205px"
     inkscape:snap-page="true"
     inkscape:object-nodes="false" />
  <g
     inkscape:groupmode="layer"
     id="layer2"
     inkscape:label="desenho">
    <path
       id="path220"
       clip-path="url(#clipPath3134)"
       style="fill:#6b628d;fill-opacity:1;stroke:none;stroke-width:1px;stroke-linecap:butt;stroke-linejoin:miter;stroke-opacity:1"
       d="m 271.5918,6.7558594 -0.11328,60.1835936 -7.81836,11.880859 1.10937,52.732418 -5.27344,5.55079 0.32227,23.50195 -6.61914,-0.72656 -0.47656,-13.96485 -10.27149,-6.27929 -25.55078,-4.2793 -5.97266,9.51953 0.7168,232.59961 -39.73828,0.375 -0.125,49.79883 -3.92969,0.62695 0.22656,-25.42578 -3.67968,0.0762 -0.0879,27.11328 -23.39649,-3.30273 -3.01562,-141.29102 -16.47852,-0.80078 -1.10156,-4.29101 -10.60938,-5.39258 -4.78125,4.9414 -33.843746,-2.32812 -8.796875,2.95312 -2.603515,4.4043 c -2.603,4.404 -4.878906,-4.87891 -4.878906,-4.87891 l -2.814454,-0.18945 -1.240234,4.44336 -6.894531,0.83789 -0.136719,97.25586 0.07755,77.33008 H 2159.1074 l 0.2149,-29.21485 -26.0645,-0.23828 -0.3828,-35.08203 -17.9199,-0.2539 0.062,-134.16016 -11.9121,-7.71875 -13.4375,8.2832 -0.375,69.05469 -20.6192,-0.15039 -4.955,34.94531 -24.1368,0.40039 0.2012,-72.74609 -14.5527,-0.0996 0.076,-20.04492 -4.3046,-0.89258 v -72.16211 l -3.9239,-7.19531 -0.2422,-24.32422 -30.0664,0.32422 0.8633,19.16015 -3.2832,8.90039 0.6973,26.63868 -4.6348,10.56836 v 38.71093 l -5.6797,-0.21289 -0.2383,-16.71679 -9.4961,-0.52539 -0.8125,-8.82227 -4.2675,-7.32617 V 130.33594 l -41.3535,-2.97656 -1.0508,7.73242 -14.9395,-5.31836 -0.1621,-39.826174 -7.332,-2.876954 -1.2383,-6.80664 -20.8906,-2.888672 -16.291,2.876953 -0.9629,8.458985 -7.545,3.615234 -5.1543,285.080078 -4.7675,-0.0371 -3.4414,-47.04687 -9.9961,-0.9375 -0.9004,-6.71875 -9.9981,0.0508 -8.0703,8.00781 -0.4121,31.12891 -3.3789,-0.0625 -0.25,-83.81836 -37.252,-0.36719 v 22.21094 l -9.9062,6.4707 0.9688,-121.32617 -10.9532,-6.26367 -0.5761,-32.88282 -6.6563,-13.0625 -3.9785,7.58203 -32.6465,-0.38867 -0.2363,107.66016 -9.8614,-0.0117 -0.3242,67.89063 -11.8379,-0.0625 -0.4492,12.23632 -8.5957,2.08985 V 172.66992 l -56.5683,-2.21484 v 54.57812 l -32.5684,-1.67382 v 26.31054 l -27.1406,0.42578 -0.2735,5.5918 -17.5429,6.76953 1.2754,51.56641 -4.1895,1.12304 -0.3379,-74.73632 -25.8516,-6.86914 -30.8046,1.57812 -0.4239,62.49805 -3.2539,-117.18946 -29.4414,-8.33398 -3.4277,-7.65625 -4.1172,5.7168 -46.3574,-0.0625 -0.3008,102.49023 -12.1484,0.46289 -0.7383,7.19531 -28.1406,0.0117 -0.074,-25.28711 -23.2851,0.0937 v -41.69726 l -13.9766,-27.00391 -3.7773,-28.38672 -7.0567,32.4375 -14.2656,28.32227 v 86.04492 l -12.3887,0.14649 v -4.43946 l -35.2519,-2.73437 -6.3867,-3.32422 -3.6036,3.61328 -16.375,0.0195 -7.2109,3.61524 0.3535,66.33203 -5.2734,-0.27149 -0.1621,-139.60156 -10.8281,-3.31836 -19.7032,1.41016 -7.2187,-3.32032 -57.1699,2.5625 0.2812,3.05274 -31.9258,1.98047 v 149.19922 l -8.3906,4.84375 v 20.25976 l -3.4414,-1.38476 v -94.08399 l -6.9727,-2.49023 v -26.64258 l -2.7832,-0.27539 v -6.38281 l -9.7382,-6.3711 v -14.98828 l -2.2227,-1.93945 -3.6484,-34.41016 -0.082,1.41406 c -2.3326,-0.14476 -4.6594,0.60653 -6.9824,2.20508 l 0.918,1.66406 c -2.4903,-0.16644 -3.8629,0.56237 -4.7364,1.69141 1.4511,1.04666 1.9269,2.66929 2.043,4.50391 1.2521,-1.27717 2.3186,-2.76295 5.1367,-2.28321 l -1.0195,-1.95703 c 1.5979,-1.94325 3.0156,-2.04227 4.4102,-1.89648 l -1.5918,27.13281 -3.8633,3.33398 v 16.09766 l -8.8672,5.83789 v 6.38281 l -4.1309,0.28125 v 26.64649 l -6.8281,2.78125 v 92.69922 l -3.6055,1.66797 -0.25,23.86914 -40.41793,-91.81836 1.83203,-7.48047 -0.93945,0.54101 -6.10156,3.3379 0.006,4.71874 -9.14453,12.22266 -2.49805,0.002 -5.28711,-11.65039 -1.11524,-4.43945 -5.55468,-2.76758 1.11718,6.38086 -64.8496,80.83789 -19.82227,-0.25195 V 314.35352 H 814.6601 796.43353 v 79.38867 h -9.56445 V 283.26562 h -4.31055 l -3.46484,-2 h -53.99414 l -0.94922,3.54688 -0.61133,-2.2793 h -4.164 v 10.54492 h -9.57812 v -42.76757 l -6.11329,-1.63672 v -12.75977 l -14.91992,-3.99804 -8.67773,2.32421 v -7.58398 l 1.59961,-2.77344 -1.16602,-4.35156 h -9.54297 v 5.38086 l 1.5586,1.55859 v 10.50391 l -9.94141,2.66211 -8.43945,4.87305 v 108.79492 h -9.34766 v -17.43555 l -11.18945,-6.46094 h -10.375 l -1.35157,5.04492 -3.1875,0.85352 -1.73828,3.01172 h -5.55078 v 7.76953 h -5.82812 v 59.11523 h -4.44141 v -38.16015 h -5.13476 v -4.85742 h -3.33008 v -4.85743 h -3.60742 v -5.4121 h 2.49804 v -1.94141 l -9.85351,-9.85352 h -7.91016 l -9.08789,9.08985 v 1.17968 h 0.93555 v 2.25391 h -2.53125 v 3.99024 H 560.625 v 43.01757 h -5.82812 V 351.5 h -5.41211 v -5.82812 h -2.49805 v -1.45704 H 544.875 v 1.73438 h -1.94336 v 5.62109 h -5.82812 v -10.06445 h -2.49024 l -0.28516,-1.06836 h -2.12695 l -0.30273,1.12891 h -9.25391 l -0.32031,-1.18946 h -2.67578 l -0.6543,1.13282 h -2.63672 v 9.43554 h -4.71875 v -5.96679 h -2.77539 v -1.52735 h -2.63672 v 1.66602 h -2.35937 v 6.9375 l -5.13281,-0.41602 -1.38477,13.21485 -22.93359,0.17578 -0.30079,26.78906 -12.36132,3.11523 v 17.24219 l -15.49024,0.1875 -0.5625,-99.55859 -24.02344,0.63672 -19.70703,4.19336 -0.375,7.18164 -10.91015,-0.30079 -0.0391,-11.66015 -15.99023,-0.28906 -0.98828,5.26953 -14.93945,0.0742 -0.55079,-7.70899 -16.3164,-0.22461 -0.375,125.57032 -5.31836,-0.11329 -0.17383,-183.08984 -17.36719,-0.11328 -0.0879,-99.98438 -29.95508,0.11329 -0.0996,-13 -2.93946,-8.82227 0.86328,-42.416016 -2.29101,-11.634766 -8.40821,-10.43164 V 9.8457031 Z"
       transform="translate(-0.01666324,2.3843453)"
       sodipodi:nodetypes="cccccccccccccccccccccccccccccccccccccccccccccccccccccccccccccccccccccccccccccccccccccccccccccccccccccccccccccccccccccccccccccccccccccccccccccccccccccccccccccccccccccccccccccccccccccccccccccccccccccccccccccccccccccccccccccccccccccccccccccccccccccccccccccccccccccccccccccccccccccccccccccccccccccccccccccccccccccccc" />
  </g>
  <g
     inkscape:groupmode="layer"
     id="layer1"
     inkscape:label="esboço"
     style="display:none"
     sodipodi:insensitive="true">
    <image
       width="801"
       height="253"
       preserveAspectRatio="none"
       xlink:href="..%5C..%5C..%5C..%5CPictures%5C14745.png"
       id="image14"
       x="487.37039"
       y="211.46001" />
  </g>
</svg>
