<?xml version="1.0" encoding="UTF-8" standalone="no"?>
<svg
   enable-background="new 0 0 2560 500.596"
   version="1.1"
   viewBox="0 0 2158.5669 531.13702"
   id="svg4"
   sodipodi:docname="skyline.svg"
   inkscape:version="1.1 (c68e22c387, 2021-05-23)"
   width="2158.5669"
   height="531.13702"
   xmlns:inkscape="http://www.inkscape.org/namespaces/inkscape"
   xmlns:sodipodi="http://sodipodi.sourceforge.net/DTD/sodipodi-0.dtd"
   xmlns="http://www.w3.org/2000/svg"
   xmlns:svg="http://www.w3.org/2000/svg">
  <defs
     id="defs8" />
  <sodipodi:namedview
     id="namedview6"
     pagecolor="#ffffff"
     bordercolor="#666666"
     borderopacity="1.0"
     inkscape:pageshadow="2"
     inkscape:pageopacity="0.0"
     inkscape:pagecheckerboard="0"
     showgrid="false"
     inkscape:zoom="0.40290974"
     inkscape:cx="882.33161"
     inkscape:cy="502.59396"
     inkscape:window-width="1366"
     inkscape:window-height="705"
     inkscape:window-x="1272"
     inkscape:window-y="64"
     inkscape:window-maximized="1"
     inkscape:current-layer="svg4"
     width="2559px"
     height="460.205px"
     inkscape:snap-page="true"
     inkscape:object-nodes="false" />
  <path
     id="path2"
     style="fill:#4e4a61;fill-opacity:1"
     d="m 285.7168,0 c -1.227,0.162 -2.43835,0.32460937 -3.65235,0.47460938 l -0.004,0.009766 c -1.201,25.47499962 0.2747,51.02528062 -1.0293,76.48828062 -5.255,1.251 -10.47067,2.664625 -15.76367,3.765625 -0.451,2.253 -0.84024,4.529641 -1.24024,6.806641 -2.465,0.926 -4.90503,1.890906 -7.33203,2.878906 -1.214,13.263002 0.0129,26.549222 -0.16211,39.824222 -3.891,0.063 -7.77072,0.0253 -11.63672,0.11328 -1.026,1.789 -2.12673,3.52808 -3.30273,5.20508 -0.425,-2.565 -0.77578,-5.14243 -1.05078,-7.73243 -7.395,0.838 -14.75238,-1.17678 -22.10938,-0.0508 -2.753,0.176 -5.37942,-0.97472 -8.10742,-0.88672 -3.816,0.988 -7.39572,2.69002 -11.13672,3.91602 -0.281,133.159 1.86443,103.85531 -4.26757,115.82031 -0.7,2.878 -0.59951,5.88032 -0.8125,8.82031 -3.16601,0.176 -6.3301,0.3374 -9.4961,0.5254 0.037,5.568 -0.0753,11.14879 -0.23828,16.71679 -1.901,0.088 -3.79069,0.14989 -5.67969,0.21289 -0.301,-11.849 0.29894,-23.71154 -0.16406,-35.56054 -0.088,-5.518 -2.77773,-10.57341 -2.92773,-16.06641 -0.288,-7.132 0.2996,-14.27553 -0.1504,-21.39453 -0.27499,-3.428 -2.30156,-6.43205 -2.47656,-9.87305 -0.438,-7.019 0.57533,-14.12503 -0.63867,-21.08203 -9.322,-4.529 -20.55741,-4.11717 -30.06641,-0.32617 -1.27,54.407 -4.60506,-10.61906 -2.91406,103.46094 -1.864,0.376 -3.71764,0.75028 -5.55664,1.11328 -0.325,6.682 0.41417,13.36292 0.0762,20.04492 -4.855,-0.013 -9.71073,0.0116 -14.55273,0.0996 0.338,24.249 10e-4,48.49709 0.20117,72.74609 -8.045,0.1 -16.09172,-0.0604 -24.136718,-0.39843 -0.325,-5.192 -0.07461,-10.3988 -0.34961,-15.5918 0.138,-2.903 -2.739906,-4.42719 -4.128906,-6.61719 -0.825,-4.191 -0.361609,-8.50928 -0.474609,-12.73828 -6.881999,-0.075 -13.764094,-0.31261 -20.621094,0.15039 0.007,-1.005 0.591,-67.37469 -0.375,-69.05469 -4.567,-2.627 -9.3715,-4.8802 -13.4375,-8.2832 -3.792,2.84 -7.783109,5.4057 -11.912109,7.7207 0.538,44.723 -0.0255,89.43921 0.0625,134.15821 -6.156,1.201 -17.919922,0.2539 -17.919922,0.2539 L 25.849609,430.75391 -0.21484375,430.99023 0,460.20508 v 70.93164 h 2159.293 v -71.97656 h -1.209 c 0,-28.05865 0.084,-74.82422 0.084,-74.82422 l -37.7364,-1.53516 c 0,0 -3.3909,0.0632 -5.0429,0.0762 0.187,-11.582 0.4073,-87.81081 -0.1387,-97.25781 -2.327,-0.287 -4.6156,-0.56289 -6.8926,-0.83789 -0.438,-1.477 -0.8522,-2.96541 -1.2402,-4.44141 -0.976,0.063 -1.9135,0.1245 -2.8145,0.1875 -1.339,1.902 -1.7778,5.79191 -4.8808,4.87891 -1.026,-1.401 -1.8136,-2.91334 -2.6016,-4.40234 -2.99,-0.876 -5.9319,-1.83913 -8.7969,-2.95313 -10.379,4.216 -10.2247,0.68017 -33.8457,2.32617 -1.627,-1.639 -3.2033,-3.2894 -4.7793,-4.9414 -2.765,3.153 -6.4423,5.05457 -10.6093,5.39257 -0.4,1.42701 -0.7636,2.86502 -1.1016,4.29102 -5.493,0.351 -11.0485,0.0147 -16.4785,0.80274 -5.933,2.8 -1.3026,113.91906 -3.0156,141.28906 -14.501,3.431 -4.3295,4.27773 -23.3985,3.30273 -0.351,-9.034 -0.038,-18.06728 -0.088,-27.11328 -0.913,-0.012 -2.7517,-0.0512 -3.6777,-0.0762 0,8.471 -0.05,16.95478 0.2246,25.42578 -1.339,-0.213 -2.6387,-0.42695 -3.9277,-0.62695 -0.488,-16.604 0.313,-33.20783 -0.125,-49.79883 -13.238,-0.638 -26.5023,-0.45 -39.7403,-0.375 -3.937,-246.082 7.2471,-237.65014 -5.2539,-242.11914 -16.509,-3.084 -19.9418,2.49329 -25.5508,4.2793 -3.6029,1.68899 -8.4194,2.30224 -10.2714,6.28124 -0.789,4.605 -0.3516,9.3079 -0.4766,13.9629 -2.227,0.226 -4.4421,0.47656 -6.6191,0.72656 -0.063,-7.095 0.538,-14.1641 0.375,-21.2461 0.137,-4.104 -5.5927,-5.56709 -5.0547,-9.87109 0.975,-15.878 0.8261,-31.805986 0.7011,-47.708984 0.163,-6.181 -8.2965,-8.445843 -7.6835,-14.839844 -0.839,-20.045 0.2136,-40.126593 -0.1114,-60.1835932 -1.402,1.0259999 -2.7782,2.0638434 -4.1172,3.0898432 -2.662,60.917 5.2348,52.671625 -8.4082,66.640626 -3.316,2.915 -1.966,7.757718 -2.291,11.636718 0.387,14.151004 0.1873,28.290014 0.8633,42.416014 -0.2,3.165 -3.1275,5.55431 -2.9395,8.82031 -0.025,4.329 0.1384,8.671 -0.1,13 -9.985,-0.363 -19.983,-0.82628 -29.955,-0.11328 -0.539,10.086 -0.4019,87.24538 -0.088,99.98438 -5.793,-0.225 -11.5862,-0.27472 -17.3672,0.11328 -0.425,5.22 0.6112,166.58084 -0.1738,183.08984 -1.802,0.025 -3.5664,0.0633 -5.3184,0.11328 0.474,-41.493 -0.375,-125.57031 -0.375,-125.57031 -5.443,0.05 -10.8864,0.22656 -16.3164,0.22656 -0.176,2.566 -0.3508,5.14204 -0.5508,7.70704 -4.992,0 -9.9724,-0.0242 -14.9394,-0.0742 -0.376,-1.752 -0.7003,-3.50553 -0.9883,-5.26953 -5.343,-0.513 -10.6992,-0.54894 -15.9922,0.28906 -0.05,3.878 -0.037,7.76915 -0.037,11.66015 -3.653,0.1 -7.2942,0.21279 -10.9102,0.30079 -0.175,-2.402 -0.275,-4.79165 -0.375,-7.18164 -6.807,-0.20101 -13.226,-2.44136 -19.707,-4.19336 -7.958,-1.088 -16.0405,-0.37372 -24.0235,-0.63672 -1.382,8.085 -0.6804,91.53054 -0.5624,99.56054 -5.1671,-0.088 -10.3353,-0.0764 -15.4903,-0.18945 -0.375,-5.756 -0.012,-11.49919 0,-17.24219 -4.091,-1.189 -8.3323,-1.77623 -12.3613,-3.11523 -0.263,-8.922 0.6252,-17.86806 -0.3008,-26.78906 -7.645,-0.6 -15.3025,-0.36378 -22.9355,-0.17579 -0.145,-47.20099 2.216,-37.21062 -7.043,-43.26562 0.362,-7.107 0.5001,-14.22659 -0.3379,-21.30859 -7.207,-0.301 -14.4154,-0.2755 -21.6094,-0.1875 -3.103,6.956 -1.6506,14.68792 -1.8886,22.04492 -4.229,0.363 -8.4588,0.58895 -12.6758,0.75195 -1.172,12.412 -0.429,97.65592 -0.625,110.16992 -5.055,0.126 -10.097,0.12628 -15.127,-0.0117 -0.191,-118.71 0.5673,-228.57793 -0.5137,-236.71093 -2.44,-2.941 -7.2947,-3.32797 -10.1347,-6.16797 -3.153,-3.053 -6.8077,-5.58192 -11.2617,-6.16992 -0.137,-19.778 0.616,-54.27738 -2.127,-60.10938 -2.14,20.083 -1.2141,40.37688 -1.4141,60.54688 -12.628,1.518 -9.3196,-0.23828 -12.3476,10.01172 -8.058,0.11299 -16.1171,-0.1509 -24.1621,0.1621 0.188,7.445 -0.7371,14.86527 -0.6621,22.32227 -7.395,0.038 -14.7902,-0.0493 -22.1602,0.26367 -0.706,39.541 0.3172,118.05345 -0.2988,135.18946 -10.911,-0.68801 -21.7967,0.125 -32.6817,0.625 -0.025,-8.983 0.6874,-17.99179 -0.6386,-26.92579 -2.64,-1.251 -4.8797,-3.10179 -6.5567,-5.46679 -8.809,-0.601 -16.4528,-5.90703 -25.2988,-5.95703 0.263,-7.044 0.3372,-14.10082 -0.3008,-21.13282 -5.518,-0.513 -11.0484,-0.78856 -16.5664,-0.85156 -0.425,-1.652 -0.8128,-3.29069 -1.1758,-4.92969 -5.405,0.15 -10.6854,-1.1259 -15.1894,-4.1289 -2.227,3.24 -4.5932,6.38059 -7.0332,9.43359 -7.282,-0.888 -14.6129,-1.2625 -21.9199,-0.8125 -0.905,30.848 0.7358,102.63455 0.088,122.06055 -7.107,-0.15 -13.427,4.03995 -20.584,3.25195 -0.736,-78.036 1.6353,-64.48859 -4.7657,-72.93359 -4.742,-4.617 -3.9417,-12.11219 -8.0957,-17.11719 -1.001,4.004 -1.7018,8.06944 -2.3398,12.14844 -8.245,0.288 -16.4916,-0.0985 -24.7246,0.31445 0.039,-1.001 0.8877,-35.7143 -0.9863,-42.2793 -12.762,0.276 -25.5137,-1.16261 -38.2637,-0.34961 -1.652,-2.753 -3.2767,-5.75542 -6.1797,-7.35742 -3.765,-2.554 -16.2299,-4.90928 -28.6289,-0.86328 -5.167,1.301 -12.3746,-1.05031 -15.5156,4.55469 -0.023,0.13 0.7721,125.32859 -0.2129,144.05859 -4.777,-0.501 -2.6321,-1.66605 -3.1641,-62.49805 -5.518,-0.075 -11.0243,-0.0616 -16.5293,-0.0996 -0.288,3.967 -0.4874,7.93311 -0.6504,11.9121 -4.855,0.075 -9.7107,0.13829 -14.5527,0.36329 -0.638,11.674 -0.037,23.38626 -0.2871,35.07226 -4.254,0.113 -8.4956,0.113 -12.7246,0 -0.75,-26.813 -0.2124,-53.63912 -0.2754,-80.45312 0.401,-4.404 -4.6677,-6.79433 -4.5547,-11.11133 -0.213,-12.024 -5.5928,-22.8972 -10.0098,-33.7832 -0.776,-2.039 -3.1789,-1.72607 -4.9179,-1.91407 -29.499,-0.314 -29.236,-4.81812 -35.584,22.67188 -1.439,0 -2.8653,0.0124 -4.2793,0.0254 -0.313,-8.495 -0.074,-16.98994 -0.6621,-25.46094 -2.477,-1.038 -4.9432,-2.05301 -7.4082,-3.04101 -0.376,-18.055 0.2392,-36.10935 -0.2618,-54.15235 -5.08,-0.05 -10.1481,-0.18789 -15.2031,-0.58789 -0.037,-6.431 -0.013,-12.87564 -0.025,-19.30664 -22.963,-3.435 -10.592,-6.20347 -30.33,-4.98047 -2.815,-0.075 -3.3155,3.22847 -4.6915,4.98047 -4.292,-0.438 -4.503,-4.9052 -6.08,-8.0332 -0.988,-2.128 -2.2645,-4.09175 -3.2285,-6.21875 -1.576,-3.754 0.8382,-8.82289 -2.4278,-11.83789 -2.39,1.001 -4.5413,2.45407 -6.6933,3.83007 -0.012,2.86501 0.013,5.73071 0.025,8.59571 -22.248,4.372 -17.3157,18.57023 -17.7167,103.24023 -4.329,0.3 -7.7958,-2.27797 -11.0118,-4.79297 -2.077,2.29 -4.0032,4.66743 -5.8672,7.10743 -7.42,-0.701 -15.1664,1.20093 -22.27339,-1.53907 -4.717,-1.789 -9.82085,-0.84961 -14.71289,-0.97461 -0.001,-0.527 -0.0536,-87.05993 -0.0996,-87.58593 -9.722,-7.608 -19.04428,-16.09039 -25.73828,-26.52539 -11.53598,-0.876 -23.35999,-1.30094 -34.70899,1.28906 -1.377,-4.054 -1.79112,-8.30878 -1.82812,-12.55078 0.35,-4.217 -3.90408,-6.60538 -4.95508,-10.35938 -1.188,-4.429 -2.23912,-8.88389 -3.32812,-13.33789 -3.928,-0.363 -7.83155,-0.91306 -11.68555,-1.66406 7.735,-12.671 3.82186,-0.45286 4.75586,-44.13086 -0.251,-0.012 -0.76367,-0.0378 -1.01367,-0.0508 -0.2,8.671 1.28815,17.59239 -1.33985,26.02539 -1.902,6.882 -1.16425,14.95259 -6.03125,20.68359 -3.703,4.392 -2.35236,10.94667 -5.81836,15.51367 -1.477,2.402 -4.2914,4.27943 -4.1914,7.35743 -0.525,7.245 0.55015,14.71576 -1.71485,21.75976 -1.452,4.755 -1.06328,9.75839 -1.23828,14.65039 -0.125,5.055 -2.56534,9.74813 -2.40234,14.82813 0.012,24.724 0.0375,49.44787 -0.3125,74.17187 -2.565,0 -5.10481,-0.0121 -7.63281,-0.0371 0.131,-82.17 0.87531,-78.1494 -3.67969,-93.3164 -4.48,-9.356 -15.81535,-24.89397 -14.77735,-44.54297 0.276,-3.303 -0.90123,-6.35727 -2.86523,-8.94727 -0.5,3.591 -1.15017,7.14583 -1.95117,10.67383 -1.401,6.193 -0.17524,12.84997 -2.74024,18.79297 -10.429,26.044 -10.3855,20.94778 -13.0625,25.92578 -2.439,7.119 -2.13901,14.8012 -4.04101,22.0332 -1.652,6.331 -1.00028,12.92554 -1.11328,19.39453 -6.043,0.38801 -12.09986,0.28683 -18.13086,0.17383 -0.613,8.421 -0.0992,16.85411 -0.0742,25.28711 -9.384,0.276 -18.76863,0.22628 -28.14063,-0.0117 -0.263,-2.403 -0.50028,-4.80531 -0.73828,-7.19531 -4.054,-0.2 -8.10743,-0.29989 -12.14844,-0.46289 -0.67499,-34.148 0.57522,-68.34423 -0.30078,-102.49023 -15.465,-0.15 -30.91742,-1.31155 -46.35742,0.0645 -1.402,-1.902 -2.76619,-3.80475 -4.11719,-5.71875 -1.126,2.565 -2.07673,5.20425 -3.42773,7.65625 -3.022,2.025 -28.44141,8.09598 -29.44141,8.33398 -2.929,25.712 3.79305,116.01546 -3.25195,117.18946 -0.7,-20.82 0.0242,-41.66505 -0.42578,-62.49805 -10.285,-0.138 -20.65769,0.52583 -30.80469,-1.57617 -8.933,0.801 -16.92861,5.74314 -25.84961,6.86914 -0.588,24.899 0.58616,49.83537 -0.33984,74.73437 -4.367,-0.701 -2.74906,-2.15945 -2.91406,-52.68945 -12.09,-1.099 -5.95302,0.93847 -17.54102,-6.76953 -0.1,-1.864 -0.20039,-3.7278 -0.27539,-5.5918 -9.034,-0.638 -18.09267,-0.68878 -27.13867,-0.42578 -0.135,-25.164 5.20881,-21.84545 -17.24219,-26.93945 -5.067,1.076 -10.04812,2.90373 -15.32812,2.30273 -0.688,-17.529 1.289,-35.08456 -0.125,-52.60156 -18.819,0.163 -37.63736,-0.0617 -56.44336,0.23828 -1.839,28.891 1.1015,57.91966 -0.6875,86.84766 2.142,66.928 -2.00777,54.49018 2.36523,68.36719 -3.429,-0.05 -6.85744,-0.0996 -10.27344,-0.22461 -0.15,-4.079 -0.28622,-8.15929 -0.44922,-12.23829 -3.954,0.063 -7.89689,0.12746 -11.83789,0.0645 -0.901,-22.609 -0.16121,-45.25758 -0.32421,-67.89258 -3.291,0.062 -6.58138,0.0997 -9.85938,0.0117 -0.703,-27.485 0.54672,-93.7702 -0.23828,-107.6582 -1.814,0.037 -3.62897,0.0492 -5.41797,0.0742 -0.413,2.215 -0.78867,4.42953 -1.13867,6.64453 -1.088,0.013 -2.17791,0.0241 -3.25391,0.0371 -0.188,-2.102 -0.36211,-4.21635 -0.53711,-6.31835 -7.432,-0.13801 -14.86683,-0.30079 -22.29883,-0.0508 -1.339,-2.527 -2.65251,-5.06703 -3.97851,-7.58203 -1.751,4.592 -4.74225,8.5835 -6.65625,13.0625 -1.314,10.911 0.41183,21.95981 -0.57617,32.88282 -14.892,12.5 -8.05638,-20.35016 -9.98438,127.58984 -8.473,-5.05 -5.66397,-4.20595 -6.16797,-28.12695 -13.651,-0.676 -27.33923,-0.7635 -40.99023,-0.1875 -0.25,27.94 -0.288,55.87836 -0.25,83.81835 -0.838,0.025 -2.54091,0.0495 -3.37891,0.0625 -0.651,-10.372 -0.0371,-20.7559 -0.41211,-31.1289 -4.204,-0.901 -7.14431,-3.80381 -8.07031,-8.00781 -3.341,0.013 -6.67005,-7.8e-4 -9.99805,-0.0508 -0.338,2.22701 -0.63739,4.46675 -0.90039,6.71876 -3.341,0.33699 -6.66809,0.62645 -9.99609,0.93945 0.232,47.52 -2.71841,35.10392 -3.44141,47.04492 -1.601,0.013 -3.19058,0.0271 -4.76757,0.0391 -0.388,-10.322 1.87771,-21.09625 -1.73829,-31.03125 -6.587,-20.32 -2.26401,-232.75382 -3.41601,-254.048826 -2.515,-1.239 -5.02992,-2.416187 -7.54492,-3.617187 -0.312,-2.828 -0.57489,-5.642031 -0.96289,-8.457031 -5.38,-1.251 -10.74802,-2.665907 -16.29102,-2.878907 -0.626,-6.956 -0.464,-13.963312 1,-20.820312 -0.05,-4.929 -1.77706,-9.746281 -1.41406,-14.738281 C 285.85519,28.202016 285.7548,14.101 285.7168,0 Z" />
</svg>
